<svg width="38" height="47" viewBox="0 0 38 47" fill="none" xmlns="http://www.w3.org/2000/svg">
<path d="M4.27968 18.2777C6.1385 18.2777 7.70785 17.0722 8.29789 15.4025C8.36442 15.4142 9.31922 15.4424 9.31922 15.4424C9.90168 15.4424 10.3762 15.9201 10.3762 16.5064V21.15C10.3762 21.3515 10.4392 21.5325 10.5285 21.6981C7.17209 24.2761 4.99344 28.3316 4.99344 32.9C4.99344 40.675 11.2773 47 19.0003 47C26.7233 47 33.0071 40.675 33.0071 32.9C33.0071 27.5062 29.9799 22.8156 25.5502 20.445V12.1413C25.5502 10.3523 26.9959 8.89769 28.7724 8.89769H29.548C29.9735 10.8253 31.6794 12.2723 33.7203 12.2723C36.0799 12.2723 38 10.34 38 7.96356C38 5.5883 36.0799 3.65601 33.7203 3.65601C31.8557 3.65601 30.2822 4.86979 29.6969 6.54769H28.7718C25.7078 6.54769 23.2152 9.0569 23.2152 12.1413V19.4551C21.884 19.0309 20.4693 18.8 19.0003 18.8C18.7984 18.8 18.6023 18.8217 18.4027 18.8305C18.4068 18.7906 18.426 8.57574 18.426 8.57574C20.5971 8.37011 22.3071 6.54651 22.3071 4.30872C22.3071 1.93229 20.3876 0 18.028 0C15.6672 0 13.7477 1.93229 13.7477 4.30872C13.7477 5.97957 14.7084 7.41542 16.0933 8.12982C16.0933 8.13335 16.0915 8.1357 16.0915 8.13923C16.0915 8.13923 16.1266 18.9715 16.1668 19.0908C14.9476 19.344 13.7927 19.7688 12.7106 20.3193V16.5064C12.7106 14.6246 11.1897 13.0924 9.31922 13.0924C9.31922 13.0924 8.47998 13.0971 8.47123 13.0971C8.0697 11.1384 6.34335 9.66144 4.27968 9.66144C1.92011 9.66144 0 11.5937 0 13.969C0 16.3454 1.92011 18.2777 4.27968 18.2777ZM33.7209 6.00601C34.7936 6.00601 35.6661 6.88374 35.6661 7.96356C35.6661 9.04339 34.7936 9.92229 33.7209 9.92229C32.6482 9.92229 31.7751 9.04339 31.7751 7.96356C31.7751 6.88374 32.6482 6.00601 33.7209 6.00601ZM19.0003 44.65C17.1747 44.65 15.4525 44.2147 13.9117 43.4585C13.893 43.4492 13.886 43.3346 13.886 43.2817C13.886 41.961 14.8724 41.0386 16.2841 41.0386H21.3931C22.7635 41.0386 23.8782 42.1308 23.8782 43.4738C23.8782 43.502 23.8373 43.579 23.8087 43.5925C22.3403 44.2646 20.7155 44.65 19.0003 44.65ZM16.0822 4.30872C16.0822 3.2289 16.9553 2.35 18.028 2.35C19.1007 2.35 19.9726 3.2289 19.9726 4.30872C19.9726 5.38855 19.1007 6.26627 18.028 6.26627C16.9553 6.26627 16.0822 5.38855 16.0822 4.30872ZM19.0003 21.15C25.4359 21.15 30.6727 26.4216 30.6727 32.9C30.6727 36.7182 28.8454 40.1069 26.0341 42.2548C25.4866 40.2091 23.6237 38.6892 21.3931 38.6892H16.2847C14.0249 38.6892 12.2478 40.0834 11.7249 42.0726C9.04901 39.9171 7.32792 36.6095 7.32792 32.9C7.32792 26.4216 12.5647 21.15 19.0003 21.15ZM4.27968 12.0114C5.35237 12.0114 6.22546 12.8892 6.22546 13.969C6.22546 15.0488 5.35237 15.9277 4.27968 15.9277C3.20699 15.9277 2.33448 15.0488 2.33448 13.969C2.33448 12.8892 3.20699 12.0114 4.27968 12.0114Z" fill="#FAFAFA"/>
<path d="M18.7512 37.3209C22.215 37.3209 25.0327 34.4845 25.0327 30.9971C25.0327 27.5115 22.215 24.675 18.7512 24.675C15.2874 24.675 12.4697 27.5114 12.4697 30.9977C12.4703 34.4845 15.288 37.3209 18.7512 37.3209ZM18.7512 27.025C20.9275 27.025 22.6982 28.8069 22.6982 30.9977C22.6982 33.189 20.9281 34.9715 18.7512 34.9715C16.5743 34.9715 14.8042 33.1896 14.8042 30.9977C14.8048 28.8069 16.5749 27.025 18.7512 27.025Z" fill="#FAFAFA"/>
</svg>
