<svg width="133" height="133" viewBox="0 0 133 133" fill="none" xmlns="http://www.w3.org/2000/svg">
<g clip-path="url(#clip0_69_12660)">
<path d="M112.59 24.2159C104.113 20.3265 95.0232 17.4607 85.5187 15.8193C85.3457 15.7876 85.1727 15.8668 85.0836 16.025C83.9144 18.1044 82.6194 20.8169 81.7126 22.9491C71.49 21.4185 61.3197 21.4185 51.3068 22.9491C50.3997 20.7696 49.0577 18.1044 47.8833 16.025C47.7942 15.872 47.6212 15.7928 47.4482 15.8193C37.9491 17.4553 28.8589 20.321 20.3765 24.2159C20.303 24.2476 20.2401 24.3004 20.1983 24.3689C2.95607 50.1286 -1.76751 75.2552 0.5496 100.07C0.559991 100.191 0.628309 100.308 0.722604 100.381C12.0985 108.736 23.1183 113.807 33.9331 117.169C34.1061 117.222 34.2895 117.159 34.3997 117.016C36.9578 113.523 39.2383 109.839 41.1936 105.965C41.3089 105.738 41.1988 105.469 40.9629 105.379C37.3457 104.007 33.9014 102.334 30.5881 100.434C30.326 100.281 30.305 99.9064 30.5463 99.7269C31.2435 99.2046 31.941 98.6609 32.6068 98.112C32.7273 98.0117 32.8951 97.9907 33.0367 98.0538C54.803 107.992 78.3676 107.992 99.877 98.0538C100.019 97.9852 100.186 98.0065 100.312 98.1065C100.978 98.6554 101.675 99.2043 102.378 99.7267C102.619 99.9062 102.603 100.281 102.341 100.434C99.0278 102.371 95.5836 104.007 91.9611 105.374C91.7253 105.463 91.6203 105.738 91.7359 105.965C93.7333 109.833 96.0137 113.517 98.5246 117.011C98.6296 117.159 98.8182 117.222 98.9912 117.169C109.858 113.807 120.878 108.735 132.254 100.381C132.354 100.307 132.417 100.196 132.427 100.075C135.2 71.3862 127.782 46.4656 112.763 24.3739C112.727 24.3004 112.664 24.2476 112.59 24.2159ZM44.4445 84.9603C37.8914 84.9603 32.4917 78.9441 32.4917 71.5554C32.4917 64.1666 37.7865 58.1504 44.4445 58.1504C51.1545 58.1504 56.5021 64.2196 56.3971 71.5554C56.3971 78.9441 51.1021 84.9603 44.4445 84.9603ZM88.6377 84.9603C82.0848 84.9603 76.6851 78.9441 76.6851 71.5554C76.6851 64.1666 81.9799 58.1504 88.6377 58.1504C95.348 58.1504 100.695 64.2196 100.591 71.5554C100.591 78.9441 95.3482 84.9603 88.6377 84.9603Z" fill="#FAFAFA"/>
</g>
<defs>
<clipPath id="clip0_69_12660">
<rect width="133" height="133" fill="white"/>
</clipPath>
</defs>
</svg>
