<svg width="28" height="28" viewBox="0 0 28 28" fill="none" xmlns="http://www.w3.org/2000/svg">
<g clip-path="url(#clip0_69_12629)">
<path d="M26.0605 1.89307H1.9395C0.870113 1.89307 0 2.76318 0 3.83256V20.1973C0 21.2666 0.870113 22.1367 1.9395 22.1367H16.0048L15.5801 24.7268C15.5002 25.2143 15.6615 25.656 16.0116 25.908C16.3616 26.16 16.8313 26.1736 17.2685 25.9431L20.3031 24.3459C20.3878 24.3024 20.6211 24.3024 20.7057 24.3459L23.7403 25.9431C23.9479 26.0524 24.1629 26.1068 24.3689 26.1068C24.5968 26.1068 24.8136 26.0402 24.9973 25.9079C25.3473 25.6559 25.5086 25.2141 25.4288 24.7266L25.0042 22.1366H26.0606C27.13 22.1366 28.0001 21.2665 28.0001 20.1971V3.83256C28 2.76307 27.1299 1.89307 26.0605 1.89307ZM20.5045 18.8123C18.6407 18.8123 17.1242 17.2959 17.1242 15.4321C17.1242 13.5683 18.6407 12.0518 20.5045 12.0518C22.3683 12.0518 23.8847 13.5683 23.8847 15.4321C23.8847 17.2959 22.3683 18.8123 20.5045 18.8123ZM21.4801 22.8749C20.9147 22.5772 20.0941 22.5772 19.5288 22.8749L17.3834 24.0041L18.0655 19.8437C18.7888 20.2452 19.6203 20.4747 20.5046 20.4747C21.3889 20.4747 22.2202 20.2451 22.9437 19.8437L23.2094 21.4657C23.2101 21.4683 23.2103 21.4712 23.2109 21.4739L23.6257 24.0042L21.4801 22.8749ZM26.3376 20.1973C26.3376 20.3474 26.2107 20.4743 26.0605 20.4743H24.7316L24.428 18.6225C24.4268 18.6152 24.4248 18.6082 24.4234 18.6009C25.1254 17.7344 25.5473 16.6317 25.5473 15.4321C25.5473 12.6515 23.2851 10.3894 20.5046 10.3894C17.724 10.3894 15.4619 12.6515 15.4619 15.4321C15.4619 16.6317 15.8837 17.7342 16.5858 18.6009C16.5844 18.6081 16.5824 18.6152 16.5811 18.6224L16.2774 20.4758C16.268 20.4754 16.2591 20.4743 16.2498 20.4743H1.9395C1.78932 20.4743 1.66243 20.3474 1.66243 20.1973V3.83256C1.66243 3.68239 1.78932 3.55549 1.9395 3.55549H26.0605C26.2107 3.55549 26.3376 3.68239 26.3376 3.83256V20.1973Z" fill="#FAFAFA"/>
<path d="M23.1208 6.67664H4.27994C3.82078 6.67664 3.44873 7.04869 3.44873 7.50785C3.44873 7.96701 3.82078 8.33906 4.27994 8.33906H23.1208C23.5799 8.33906 23.952 7.96701 23.952 7.50785C23.952 7.04869 23.5799 6.67664 23.1208 6.67664Z" fill="#FAFAFA"/>
<path d="M12.2596 11.1838H4.27994C3.82078 11.1838 3.44873 11.5558 3.44873 12.015C3.44873 12.4742 3.82078 12.8462 4.27994 12.8462H12.2596C12.7187 12.8462 13.0908 12.4742 13.0908 12.015C13.0908 11.5558 12.7187 11.1838 12.2596 11.1838Z" fill="#FAFAFA"/>
</g>
<defs>
<clipPath id="clip0_69_12629">
<rect width="28" height="28" fill="white"/>
</clipPath>
</defs>
</svg>
