<svg width="28" height="27" viewBox="0 0 28 27" fill="none" xmlns="http://www.w3.org/2000/svg">
<g clip-path="url(#clip0_69_12603)">
<path d="M27.0938 2.33398H13.4323C11.662 2.33398 10.1396 3.18174 9.2554 4.65989C9.2554 4.65989 6.04271 10.0302 6.01566 10.075C5.66123 10.6618 5.61931 10.8101 5.60787 11.517L5.59811 12.0442H3.62063C3.15466 12.0442 2.77688 12.422 2.77688 12.888V22.9785H1.78125C1.31529 22.9785 0.9375 23.3563 0.9375 23.8222C0.9375 24.2882 1.31529 24.666 1.78125 24.666H20.0629C20.5289 24.666 20.9067 24.2882 20.9067 23.8222C20.9067 23.3563 20.5289 22.9785 20.0629 22.9785H19.0673V15.759C19.246 15.7129 19.4305 15.6707 19.6241 15.6265C20.6924 15.3828 22.0094 15.0824 23.6313 13.7139H27.0938C27.5597 13.7139 27.9375 13.3361 27.9375 12.8701V3.17773C27.9375 2.71177 27.5597 2.33398 27.0938 2.33398ZM17.3798 22.9785H4.46437V13.7318H12.488C12.2107 14.0266 11.8936 14.4099 11.5321 14.9833C10.5601 16.5247 10.1954 17.7972 10.4481 18.7655C10.9037 20.5112 13.082 20.7718 14.3819 19.8315C15.2241 19.2223 15.8112 18.3502 16.4488 17.5462C16.7796 17.129 17.085 16.8157 17.3798 16.5742V22.9785ZM12.198 11.8046C12.5601 11.4224 12.9018 11.0169 13.1894 10.526C13.5558 10.633 13.9548 10.7084 14.3367 10.751C14.3059 10.8548 14.2681 10.9705 14.2217 11.1002C14.0831 11.4872 13.957 11.7935 13.8373 12.0443H12.2298C12.2206 11.9634 12.2101 11.8831 12.198 11.8046ZM19.2487 13.9813C17.9723 14.2725 16.6524 14.5736 15.1266 16.4977C14.6227 17.1332 14.1554 17.8379 13.5274 18.3612C13.1719 18.6574 12.2586 18.9984 12.0793 18.3331C11.9985 18.0332 12.1084 17.6714 12.2029 17.3901C12.5657 16.3094 13.2501 15.3292 14.0636 14.5407C14.6296 13.9921 15.1642 13.4739 15.8104 11.669C16.0641 10.9606 16.1657 10.4355 16.1502 9.91329C16.1434 9.6822 16.0419 9.46404 15.8698 9.30979C15.6976 9.1556 15.47 9.07855 15.2392 9.09727C14.6822 9.14173 13.6335 8.9792 13.2038 8.72529C12.9906 8.59925 12.7329 8.57336 12.4987 8.6542C12.2647 8.73515 12.078 8.91481 11.9881 9.14563C11.704 9.87584 11.2326 10.3875 10.6911 10.9338C10.4925 11.1341 10.4072 11.4203 10.4636 11.6967C10.4892 11.822 10.5104 11.9378 10.5271 12.0441H7.28593L7.29521 11.5443C7.29742 11.4049 7.2998 11.2612 7.30676 11.2122C7.32585 11.1697 10.7036 5.52605 10.7036 5.52605C11.284 4.55574 12.2531 4.02138 13.4323 4.02138H22.4723V12.4833C21.2045 13.5347 20.2525 13.7522 19.2487 13.9813ZM26.25 12.0264H24.1598V4.02148H26.25V12.0264Z" fill="#FAFAFA"/>
</g>
<defs>
<clipPath id="clip0_69_12603">
<rect width="27" height="27" fill="white" transform="translate(0.9375)"/>
</clipPath>
</defs>
</svg>
