<svg width="32" height="32" viewBox="0 0 32 32" fill="none" xmlns="http://www.w3.org/2000/svg">
<g clip-path="url(#clip0_164_9)">
<rect width="32" height="32" rx="5" fill="#070F21"/>
<circle cx="16" cy="-4" r="26" fill="url(#paint0_radial_164_9)" fill-opacity="0.3"/>
<path d="M16.2479 27C14.3747 27 12.5455 26.6699 10.7603 26.0097C8.97521 25.3282 7.38843 24.3699 6 23.1347L8.7438 19.8125C10.0882 20.9625 11.3774 21.7931 12.6116 22.3042C13.8678 22.8153 15.1901 23.0708 16.5785 23.0708C17.5482 23.0708 18.3857 22.9644 19.0909 22.7514C19.7961 22.5171 20.3361 22.187 20.7107 21.7611C21.1074 21.3352 21.3058 20.8347 21.3058 20.2597C21.3058 19.4931 21.0193 18.9074 20.4463 18.5028C19.8733 18.0769 18.8926 17.7468 17.5041 17.5125L12.9091 16.7458C10.9477 16.4264 9.44904 15.7556 8.41322 14.7333C7.39945 13.7111 6.89256 12.3907 6.89256 10.7722C6.89256 9.38796 7.2562 8.18472 7.98347 7.1625C8.73278 6.14028 9.77961 5.36296 11.124 4.83056C12.4904 4.27685 14.1102 4 15.9835 4C17.6804 4 19.3664 4.27685 21.0413 4.83056C22.7383 5.38426 24.2369 6.15093 25.5372 7.13056L22.9587 10.5806C20.5344 8.79167 18.0992 7.89722 15.6529 7.89722C14.7934 7.89722 14.0441 8.0037 13.405 8.21667C12.7658 8.42963 12.27 8.72778 11.9174 9.11111C11.5868 9.47315 11.4215 9.90972 11.4215 10.4208C11.4215 11.1023 11.6749 11.6347 12.1818 12.0181C12.6887 12.3801 13.5372 12.6569 14.7273 12.8486L19.0909 13.5514C21.405 13.9134 23.135 14.6269 24.281 15.6917C25.427 16.7352 26 18.1194 26 19.8444C26 21.2926 25.6033 22.5597 24.8099 23.6458C24.0165 24.7106 22.8815 25.5412 21.405 26.1375C19.9504 26.7125 18.2314 27 16.2479 27Z" fill="white"/>
</g>
<defs>
<radialGradient id="paint0_radial_164_9" cx="0" cy="0" r="1" gradientUnits="userSpaceOnUse" gradientTransform="translate(16 -4) rotate(90) scale(26)">
<stop stop-color="#0058D4"/>
<stop offset="1" stop-color="#0058D4" stop-opacity="0"/>
</radialGradient>
<clipPath id="clip0_164_9">
<rect width="32" height="32" rx="5" fill="white"/>
</clipPath>
</defs>
</svg>
