<svg width="37" height="37" viewBox="0 0 37 37" fill="none" xmlns="http://www.w3.org/2000/svg">
<g clip-path="url(#clip0_61_6209)">
<path d="M31.5733 7.42467C31.2942 7.42467 31.0167 7.326 30.7947 7.1225C27.3923 4.02067 23.0263 2.3125 18.4999 2.3125C13.9736 2.3125 9.60759 4.02067 6.20513 7.12404C5.73184 7.55417 5.00109 7.51871 4.57096 7.0485C4.14084 6.57675 4.17476 5.84446 4.64651 5.41433C8.47755 1.92246 13.397 0 18.4999 0C23.6028 0 28.5223 1.92246 32.3533 5.41433C32.8251 5.84446 32.859 6.57521 32.4289 7.0485C32.2007 7.29825 31.8878 7.42467 31.5733 7.42467Z" fill="#FAFAFA"/>
<path d="M33.5313 14.9804C33.1598 14.9804 32.7929 14.8015 32.5709 14.4685C29.3611 9.68938 24.1009 6.83575 18.5001 6.83575C12.8992 6.83575 7.63902 9.68938 4.42927 14.4685C4.07315 15.0004 3.35319 15.1407 2.8244 14.7846C2.29406 14.4285 2.15223 13.71 2.50835 13.1797C6.14823 7.76075 12.1268 4.52479 18.5001 4.52479C24.8733 4.52479 30.8519 7.76075 34.4918 13.1813C34.8479 13.7116 34.7076 14.43 34.1757 14.7861C33.9784 14.9172 33.7549 14.9804 33.5313 14.9804Z" fill="#FAFAFA"/>
<path d="M14.8478 37C14.5503 37 14.2527 36.8859 14.0261 36.6578C13.7733 36.4034 7.84863 30.3554 7.84863 24.5325C7.84863 18.4892 12.6263 13.5728 18.5 13.5728C24.3738 13.5728 29.1514 18.4892 29.1514 24.5325C29.1514 25.1708 28.6334 25.6888 27.9951 25.6888C27.3569 25.6888 26.8389 25.1708 26.8389 24.5325C26.8389 19.7642 23.0988 15.8853 18.5 15.8853C13.9012 15.8853 10.1611 19.7642 10.1611 24.5325C10.1611 29.415 15.614 34.9743 15.6695 35.0298C16.1197 35.483 16.1166 36.2153 15.6618 36.6655C15.4367 36.889 15.1423 37 14.8478 37Z" fill="#FAFAFA"/>
<path d="M22.1523 37C19.3711 37 12.9239 31.709 12.2995 25.8167C12.079 23.734 12.742 21.6034 14.0709 20.1172C15.2271 18.8253 16.7888 18.1084 18.4677 18.0992H18.5001C20.1373 18.0992 21.6852 18.742 22.863 19.9122C24.0932 21.1347 24.77 22.7766 24.77 24.5341V25.288C24.77 27.1457 26.2161 28.6565 27.9952 28.6565C29.7743 28.6565 31.2219 27.1457 31.2219 25.288V25.0243C31.2219 17.8247 26.0065 11.8354 19.348 11.3914C15.8777 11.1555 12.5462 12.3549 9.9762 14.7568C7.30912 17.2512 5.77979 20.8156 5.77979 24.5341C5.77979 27.5927 6.81578 30.5728 8.69662 32.9254C9.09437 33.4249 9.0142 34.151 8.5147 34.5503C8.01674 34.9496 7.28908 34.8694 6.88979 34.3684C4.68366 31.6072 3.46729 28.1138 3.46729 24.5325C3.46729 20.1758 5.26487 15.9963 8.39599 13.0672C11.4377 10.2212 15.3828 8.80446 19.5006 9.08196C27.3693 9.60767 33.5344 16.6099 33.5344 25.0228V25.2864C33.5344 28.4191 31.0492 30.9675 27.9952 30.9675C24.9412 30.9675 22.4575 28.4191 22.4575 25.2864V24.5325C22.4575 23.3948 22.0228 22.3372 21.2335 21.551C20.4935 20.814 19.5237 20.4101 18.5016 20.4101C18.4939 20.4101 18.4877 20.4101 18.48 20.4101C17.1773 20.4163 16.3001 21.0931 15.7945 21.6589C14.8926 22.6656 14.4455 24.1302 14.5981 25.5732C15.1084 30.3801 20.6322 34.689 22.1523 34.689C22.7905 34.689 23.3085 35.207 23.3085 35.8453C23.3085 36.4835 22.7905 37 22.1523 37Z" fill="#FAFAFA"/>
<path d="M26.4426 34.7384C22.3047 34.7384 17.2527 29.6817 17.2527 23.7787C17.2527 23.1404 17.7707 22.6224 18.4089 22.6224C19.0472 22.6224 19.5652 23.1404 19.5652 23.7787C19.5652 28.3543 23.4116 32.4259 26.4426 32.4259C27.0808 32.4259 27.5988 32.9439 27.5988 33.5821C27.5988 34.2204 27.0808 34.7384 26.4426 34.7384Z" fill="#FAFAFA"/>
</g>
<defs>
<clipPath id="clip0_61_6209">
<rect width="37" height="37" fill="white"/>
</clipPath>
</defs>
</svg>
