<svg width="44" height="44" viewBox="0 0 44 44" fill="none" xmlns="http://www.w3.org/2000/svg">
<g clip-path="url(#clip0_61_6241)">
<path d="M0 22C0 34.1125 9.88565 43.9991 21.9985 44H21.9997H22.0003C34.1138 43.9998 44 34.113 44 22C44 9.88634 34.113 0 22 0C9.9018 0 0 9.87585 0 22ZM2.57812 22C2.57812 18.1445 3.70752 14.5479 5.65263 11.5234L8.10064 12.1195C8.53059 12.227 8.87906 12.5218 9.05652 12.9282C9.23381 13.334 9.21233 13.7909 8.99766 14.1818C8.06506 15.8797 8.62572 18.0705 10.2739 19.1693L15.8438 22.8825L17.1243 25.4434C17.5604 26.3156 17.3901 27.3648 16.7006 28.0544L15.9322 28.8228C15.4288 29.3262 15.4288 30.1423 15.9322 30.6457L17.4703 32.1838C17.8975 32.611 18.1327 33.1789 18.1327 33.7831C18.1327 36.4024 18.7295 38.9989 19.8571 41.3029C10.1526 40.233 2.57812 31.985 2.57812 22ZM19.4303 24.2906L18.9295 23.2891H19.1176C20.4041 23.2891 21.5608 24.0039 22.1361 25.1546C23.151 27.1844 25.1912 28.4453 27.4606 28.4453H28.4453V29.7344C28.4453 30.7766 28.0368 31.7539 27.295 32.4864C24.9157 34.8356 23.1364 37.1834 21.9096 39.6011C21.1336 37.8047 20.7109 35.7666 20.7109 33.7832C20.7109 32.4905 20.2075 31.2751 19.2934 30.361L18.6638 29.7315C20.0214 28.2567 20.3332 26.0962 19.4303 24.2906ZM23.9387 41.3254C25.0377 38.9632 26.7412 36.6563 29.1063 34.3209C30.3426 33.1004 31.0234 31.4715 31.0234 29.7344V27.1562C31.0234 26.4443 30.4463 25.8672 29.7344 25.8672H27.4606C26.174 25.8672 25.0174 25.1524 24.442 24.0017C23.4272 21.9719 21.3869 20.7109 19.1176 20.7109H17.6405L17.2485 19.9269C16.5539 18.5378 17.1838 16.8474 18.6826 16.0787C19.9146 15.4468 20.7109 14.0643 20.7109 12.5566V11.6875C20.7109 10.9767 21.2892 10.3984 22 10.3984H23.5554C26.2066 10.3984 28.0667 7.78353 27.2189 5.2928L26.4885 3.10269C29.3793 3.78924 32.0217 5.12359 34.2537 6.94358L33.8602 8.12427C33.7972 8.31325 33.6896 8.48745 33.5488 8.62821L32.1561 10.0209C31.4257 10.7513 31.0234 11.7225 31.0234 12.7554V14.2656C31.0234 16.398 32.7583 18.1328 34.8906 18.1328C35.6014 18.1328 36.1797 18.7111 36.1797 19.4219V21.3914C36.1797 21.5904 36.1326 21.7898 36.0436 21.9679L35.6032 22.8487C34.9995 24.0563 35.0628 25.4629 35.7725 26.6112C36.4824 27.7597 37.712 28.4445 39.0621 28.4445H40.3211C37.8633 35.4105 31.5394 40.5686 23.9387 41.3254ZM41.4219 22C41.4219 23.3239 41.2882 24.6171 41.0346 25.8672H39.0621C38.4135 25.8672 38.0792 25.4396 37.9656 25.2558C37.8519 25.072 37.6191 24.5818 37.9091 24.0017L38.3496 23.1208C38.6166 22.5866 38.7578 21.9886 38.7578 21.3914V19.4219C38.7578 17.2895 37.023 15.5547 34.8906 15.5547C34.1798 15.5547 33.6016 14.9764 33.6016 14.2656V12.7554C33.6016 12.411 33.7356 12.0873 33.9791 11.8439L35.3718 10.4513C35.7941 10.0291 36.1171 9.50641 36.3061 8.93965L36.3211 8.89487C39.4871 12.3517 41.4219 16.954 41.4219 22ZM22 2.57812C22.5451 2.57812 23.0847 2.60184 23.6186 2.6461L24.7757 6.11583C25.0608 6.9532 24.4396 7.82031 23.5554 7.82031H22C19.8676 7.82031 18.1328 9.55513 18.1328 11.6874V12.5565C18.1328 13.0989 17.8809 13.5925 17.506 13.7848C15.4945 14.8164 14.3498 16.7869 14.3829 18.8102L11.7041 17.0243C11.1598 16.6614 10.9636 15.958 11.2576 15.4229C11.8601 14.3258 11.9189 13.0404 11.4192 11.8962C10.9192 10.7515 9.93755 9.92123 8.71836 9.61649L7.3352 9.27962C10.8989 5.1767 16.1516 2.57812 22 2.57812Z" fill="#FAFAFA"/>
</g>
<defs>
<clipPath id="clip0_61_6241">
<rect width="44" height="44" fill="white"/>
</clipPath>
</defs>
</svg>
