<svg width="25" height="25" viewBox="0 0 25 25" fill="none" xmlns="http://www.w3.org/2000/svg">
<g clip-path="url(#clip0_69_12615)">
<path d="M24.2676 20.5933H23.5291V18.3838C23.5291 17.9793 23.2011 17.6514 22.7966 17.6514H13.9709C13.5665 17.6514 13.2385 17.9793 13.2385 18.3838V20.5933H12.5C12.0955 20.5933 11.7676 20.9212 11.7676 21.3257V24.2676C11.7676 24.6721 12.0955 25 12.5 25H24.2676C24.6721 25 25 24.6721 25 24.2676V21.3257C25 20.9212 24.6721 20.5933 24.2676 20.5933ZM14.7034 19.1162H22.0642V20.5933H14.7034V19.1162ZM23.5352 23.5352H13.2324V22.0581H23.5352V23.5352Z" fill="#FAFAFA"/>
<path d="M15.4036 11.7676H14.9475C14.543 11.7676 14.2151 12.0955 14.2151 12.5V15.4419C14.2151 15.8464 14.543 16.1743 14.9475 16.1743H21.8201C22.2246 16.1743 22.5525 15.8464 22.5525 15.4419V12.5C22.5525 12.0955 22.2246 11.7676 21.8201 11.7676H21.364L22.0208 9.78887C22.0455 9.71445 22.0581 9.63652 22.0581 9.55811V6.61621C22.0581 6.53784 22.0455 6.45991 22.0208 6.38545L21.364 4.40674H21.8201C22.2246 4.40674 22.5525 4.07881 22.5525 3.67432V0.732422C22.5525 0.32793 22.2246 0 21.8201 0H14.9475C14.543 0 14.2151 0.32793 14.2151 0.732422V3.67432C14.2151 4.07881 14.543 4.40674 14.9475 4.40674H15.4036L14.9133 5.88379H0.732422C0.32793 5.88379 0 6.21172 0 6.61621V9.55811C0 9.9626 0.32793 10.2905 0.732422 10.2905H14.9133L15.4036 11.7676ZM21.0876 14.7095H15.6799V13.2324H21.0876V14.7095ZM15.6799 1.46484H21.0876V2.94189H15.6799V1.46484ZM19.8206 4.40674L20.5933 6.73462V9.4397L19.8206 11.7676H16.947L16.1743 9.4397V6.73462L16.947 4.40674H19.8206ZM14.7095 8.82568H11.7615V7.34863H14.7095V8.82568ZM1.46484 7.34863H10.2966V8.82568H1.46484V7.34863Z" fill="#FAFAFA"/>
</g>
<defs>
<clipPath id="clip0_69_12615">
<rect width="25" height="25" fill="white"/>
</clipPath>
</defs>
</svg>
