<svg width="35" height="35" viewBox="0 0 35 35" fill="none" xmlns="http://www.w3.org/2000/svg">
<g clip-path="url(#clip0_61_6224)">
<path d="M31.7406 26.9063C32.4367 26.1232 32.8185 25.1102 32.8125 24.0625C32.8125 22.9022 32.3516 21.7894 31.5311 20.9689C30.7106 20.1484 29.5978 19.6875 28.4375 19.6875C27.2772 19.6875 26.1644 20.1484 25.3439 20.9689C24.5234 21.7894 24.0625 22.9022 24.0625 24.0625C24.0565 25.1102 24.4383 26.1232 25.1344 26.9063C24.154 27.4116 23.3314 28.1768 22.7566 29.1181C22.1817 30.0595 21.8767 31.1408 21.875 32.2437V33.9062C21.875 34.1963 21.9902 34.4745 22.1954 34.6796C22.4005 34.8848 22.6787 35 22.9688 35H33.9062C34.1963 35 34.4745 34.8848 34.6796 34.6796C34.8848 34.4745 35 34.1963 35 33.9062V32.2437C34.9983 31.1408 34.6933 30.0595 34.1184 29.1181C33.5436 28.1768 32.721 27.4116 31.7406 26.9063ZM28.4375 21.875C28.8701 21.875 29.2931 22.0033 29.6528 22.2437C30.0125 22.484 30.2929 22.8257 30.4585 23.2254C30.6241 23.6251 30.6674 24.0649 30.583 24.4893C30.4986 24.9136 30.2902 25.3034 29.9843 25.6093C29.6784 25.9152 29.2886 26.1236 28.8643 26.208C28.4399 26.2924 28.0001 26.2491 27.6004 26.0835C27.2007 25.9179 26.859 25.6375 26.6187 25.2778C26.3783 24.9181 26.25 24.4951 26.25 24.0625C26.25 23.4823 26.4805 22.9259 26.8907 22.5157C27.3009 22.1055 27.8573 21.875 28.4375 21.875ZM32.8125 32.8125H24.0625V32.4406C24.0625 31.3789 24.4843 30.3607 25.235 29.61C25.9857 28.8593 27.0039 28.4375 28.0656 28.4375H28.8094C29.8711 28.4375 30.8893 28.8593 31.64 29.61C32.3907 30.3607 32.8125 31.3789 32.8125 32.4406V32.8125Z" fill="#FAFAFA"/>
<path d="M29.5313 9.84375V15.3125C29.5313 15.6026 29.4161 15.8808 29.2109 16.0859C29.0058 16.291 28.7276 16.4062 28.4376 16.4062C28.1475 16.4062 27.8693 16.291 27.6642 16.0859C27.459 15.8808 27.3438 15.6026 27.3438 15.3125V9.84375C27.3438 8.97351 26.9981 8.13891 26.3827 7.52356C25.7674 6.9082 24.9328 6.5625 24.0626 6.5625H19.6876L20.8032 8.09375C20.9772 8.32581 21.052 8.61751 21.0109 8.90468C20.9699 9.19184 20.8165 9.45095 20.5844 9.625C20.4695 9.71118 20.3388 9.77388 20.1996 9.80953C20.0605 9.84518 19.9157 9.85307 19.7735 9.83276C19.4863 9.79173 19.2272 9.63832 19.0532 9.40625L16.6251 6.125C16.4863 5.9343 16.4116 5.70456 16.4116 5.46875C16.4116 5.23294 16.4863 5.0032 16.6251 4.8125L19.0313 1.53125C19.2053 1.29919 19.4645 1.14577 19.7516 1.10474C19.8938 1.08443 20.0386 1.09232 20.1777 1.12797C20.3169 1.16362 20.4476 1.22632 20.5626 1.3125C20.6775 1.39868 20.7743 1.50665 20.8474 1.63024C20.9206 1.75383 20.9687 1.89063 20.9891 2.03282C21.0094 2.17501 21.0015 2.31981 20.9658 2.45895C20.9302 2.59809 20.8675 2.72884 20.7813 2.84375L19.6876 4.375H24.0626C25.513 4.375 26.904 4.95117 27.9295 5.97676C28.9551 7.00235 29.5313 8.39335 29.5313 9.84375Z" fill="#FAFAFA"/>
<path d="M18.375 30.1875L15.9688 33.4688C15.8826 33.5837 15.7746 33.6805 15.651 33.7536C15.5274 33.8268 15.3906 33.8749 15.2484 33.8953C15.1062 33.9156 14.9614 33.9077 14.8223 33.872C14.6832 33.8364 14.5524 33.7737 14.4375 33.6875C14.3226 33.6013 14.2258 33.4934 14.1526 33.3698C14.0794 33.2462 14.0313 33.1094 14.011 32.9672C13.9907 32.825 13.9986 32.6802 14.0342 32.5411C14.0699 32.4019 14.1326 32.2712 14.2188 32.1563L15.3125 30.625H10.9375C9.4871 30.625 8.0961 30.0488 7.07051 29.0232C6.04492 27.9977 5.46875 26.6067 5.46875 25.1563V19.6875C5.46875 19.3974 5.58398 19.1192 5.7891 18.9141C5.99422 18.709 6.27242 18.5938 6.5625 18.5938C6.85258 18.5938 7.13078 18.709 7.3359 18.9141C7.54102 19.1192 7.65625 19.3974 7.65625 19.6875V25.1563C7.65625 26.0265 8.00195 26.8611 8.61731 27.4764C9.23266 28.0918 10.0673 28.4375 10.9375 28.4375H15.3125L14.1969 26.9063C14.1107 26.7913 14.048 26.6606 14.0123 26.5214C13.9767 26.3823 13.9688 26.2375 13.9891 26.0953C14.0094 25.9531 14.0576 25.8163 14.1307 25.6927C14.2039 25.5691 14.3007 25.4612 14.4156 25.375C14.5305 25.2888 14.6613 25.2261 14.8004 25.1905C14.9396 25.1548 15.0844 25.1469 15.2266 25.1672C15.3687 25.1876 15.5055 25.2357 15.6291 25.3089C15.7527 25.382 15.8607 25.4788 15.9469 25.5938L18.3531 28.875C18.495 29.0634 18.5736 29.2919 18.5775 29.5277C18.5815 29.7635 18.5106 29.9945 18.375 30.1875Z" fill="#FAFAFA"/>
<path d="M9.86563 7.21875C10.5617 6.43565 10.9435 5.42273 10.9375 4.375C10.9375 3.21468 10.4766 2.10188 9.65609 1.28141C8.83562 0.460936 7.72282 0 6.5625 0C5.40218 0 4.28938 0.460936 3.46891 1.28141C2.64844 2.10188 2.1875 3.21468 2.1875 4.375C2.18149 5.42273 2.56328 6.43565 3.25938 7.21875C2.27898 7.72412 1.45639 8.4893 0.881554 9.43065C0.306715 10.372 0.00174979 11.4533 0 12.5562L0 14.2188C0 14.5088 0.115234 14.787 0.320352 14.9921C0.52547 15.1973 0.803669 15.3125 1.09375 15.3125H12.0312C12.3213 15.3125 12.5995 15.1973 12.8046 14.9921C13.0098 14.787 13.125 14.5088 13.125 14.2188V12.5562C13.1233 11.4533 12.8183 10.372 12.2434 9.43065C11.6686 8.4893 10.846 7.72412 9.86563 7.21875ZM6.5625 2.1875C6.99515 2.1875 7.41808 2.31579 7.77781 2.55616C8.13754 2.79653 8.41792 3.13817 8.58349 3.53788C8.74905 3.93759 8.79237 4.37743 8.70797 4.80176C8.62356 5.22609 8.41522 5.61587 8.1093 5.9218C7.80337 6.22772 7.41359 6.43606 6.98926 6.52047C6.56493 6.60487 6.12509 6.56155 5.72538 6.39599C5.32567 6.23042 4.98403 5.95004 4.74366 5.59031C4.50329 5.23058 4.375 4.80765 4.375 4.375C4.375 3.79484 4.60547 3.23844 5.0157 2.8282C5.42594 2.41797 5.98234 2.1875 6.5625 2.1875ZM2.1875 13.125V12.7531C2.1875 11.6914 2.60926 10.6732 3.35999 9.92249C4.11072 9.17176 5.12893 8.75 6.19062 8.75H6.93438C7.99607 8.75 9.01428 9.17176 9.76501 9.92249C10.5157 10.6732 10.9375 11.6914 10.9375 12.7531V13.125H2.1875Z" fill="#FAFAFA"/>
</g>
<defs>
<clipPath id="clip0_61_6224">
<rect width="35" height="35" fill="white"/>
</clipPath>
</defs>
</svg>
